#!OML:ASF E:\Steps\Project 1\Capture day 1\Session 2\Subject.ASF
:FULLY-SPECIFIED
:DEGREES
206
root 6.02731 15.8682 14.3282 -150.461 -16.4539 176.469
lowerback -20.1419 -7.0829 -13.4018
upperback -0.422637 -6.53954 -1.80294
thorax 12.1194 -3.94003 3.41932
lowerneck -2.59061 -7.28259 -0.810568
upperneck 17.7918 -12.1586 5.55555
head 6.22764 -6.00293 1.06698
rclavicle 2.78299e-015 1.74931e-014
rhumerus -65.5889 0.401683 -80.2546
rradius 41.3757
rwrist -9.4754
rhand 1.77983 -48.2703
rfingers 7.12502
rthumb 27.294 -76.3148
lclavicle 2.78299e-015 1.74931e-014
lhumerus -39.6888 -23.2893 56.3454
lradius 48.5792
lwrist 11.86
lhand -22.4726 -11.2887
lfingers 7.12502
lthumb 3.95238 18.6544
rfemur -45.6464 -10.3787 -11.9779
rtibia 24.4554
rfoot -9.19334 -23.7012
rtoes -30.1341
lfemur -16.1197 -18.1555 11.1632
ltibia 31.8424
lfoot -38.3512 8.73085
ltoes -50.5161
207
root 6.14993 15.7613 14.269 -150.236 -16.0207 175.51
lowerback -19.1794 -6.67777 -12.9906
upperback -0.132387 -6.18043 -2.07003
thorax 11.7773 -3.73471 3.09563
lowerneck -2.64188 -7.52231 -0.585793
upperneck 17.0729 -12.2632 5.23269
head 5.97816 -6.03664 0.945109
rclavicle 1.98785e-014 -8.11041e-014
rhumerus -64.8767 0.608283 -80.3993
rradius 40.7519
rwrist -8.75806
rhand 1.6987 -48.3124
rfingers 7.12502
rthumb 27.2164 -76.3691
lclavicle 1.98785e-014 -8.11041e-014
lhumerus -39.5732 -22.6939 56.4578
lradius 48.1098
lwrist 11.8454
lhand -22.9195 -11.9334
lfingers 7.12502
lthumb 3.52084 18.0172
rfemur -46.3792 -11.7931 -11.9352
rtibia 25.585
rfoot -11.854 -22.4174
rtoes -20.6071
lfemur -15.9157 -17.9528 10.5986
ltibia 32.0329
lfoot -38.6117 8.1217
ltoes -50.6764
208
root 6.26642 15.6589 14.2195 -150.083 -15.4391 174.536
lowerback -17.8887 -6.2427 -12.5288
upperback 0.0830374 -5.85015 -2.36716
thorax 11.1595 -3.53194 2.73234
lowerneck -2.72088 -7.70868 -0.459752
upperneck 16.3125 -12.308 5.01406
head 5.73153 -6.04237 0.875125
rclavicle -1.19271e-014 4.29375e-014
rhumerus -64.1962 1.04039 -80.609
rradius 40.2057
rwrist -8.11506
rhand 1.60591 -48.1855
rfingers 7.12502
rthumb 27.1276 -76.256
lclavicle -1.19271e-014 4.29375e-014
lhumerus -39.5833 -21.959 56.6085
lradius 47.486
lwrist 11.7726
lhand -23.1145 -12.1693
lfingers 7.12502
lthumb 3.33257 17.7844
rfemur -47.2313 -13.0507 -12.184
rtibia 26.9584
rfoot -10.8139 -20.6886
rtoes -29.7215
lfemur -15.5314 -17.8912 9.8861
ltibia 32.0767
lfoot -38.8822 6.68262
ltoes -48.721
209
root 6.37871 15.5656 14.1822 -149.986 -14.6029 173.755
lowerback -16.6174 -5.78963 -12.0869
upperback 0.328819 -5.47706 -2.52499
thorax 10.6015 -3.31315 2.53442
lowerneck -2.63152 -7.80656 -0.622613
upperneck 15.3127 -12.2247 5.03757
head 5.41088 -5.99465 0.94536
rclavicle -9.93923e-015 -3.18055e-014
rhumerus -63.4803 1.70736 -80.7101
rradius 39.8804
rwrist -7.3609
rhand 1.46931 -48.0956
rfingers 7.12502
rthumb 26.997 -76.1865
lclavicle -9.93923e-015 -3.18055e-014
lhumerus -39.826 -21.1117 56.9732
lradius 47.0349
lwrist 12.0415
lhand -23.3191 -12.0743
lfingers 7.12502
lthumb 3.13497 17.8824
rfemur -48.7027 -14.127 -12.2625
rtibia 29.0997
rfoot -11.8882 -18.7958
rtoes -32.9424
lfemur -15.0692 -17.4827 9.21093
ltibia 32.1905
lfoot -38.8044 5.68492
ltoes -47.5573
210
root 6.48871 15.4845 14.145 -149.917 -13.6857 173.257
lowerback -15.5472 -5.36163 -11.5303
upperback 0.624195 -5.11323 -2.55239
thorax 10.2194 -3.09814 2.38202
lowerneck -2.36329 -7.82864 -0.581929
upperneck 14.0999 -11.9949 4.81918
head 4.96516 -5.88597 0.934821
rclavicle -1.94809e-014 6.20208e-014
rhumerus -62.6859 2.4181 -80.6582
rradius 39.7045
rwrist -6.52873
rhand 1.23198 -48.2593
rfingers 7.12502
rthumb 26.7699 -76.3851
lclavicle -1.94809e-014 6.20208e-014
lhumerus -40.2467 -20.2504 57.4748
lradius 46.7163
lwrist 12.4578
lhand -23.5846 -11.6379
lfingers 7.12502
lthumb 2.87852 18.3224
rfemur -50.5506 -15.0068 -11.9035
rtibia 31.5308
rfoot -13.0828 -17.2493
rtoes -35.4257
lfemur -14.4974 -16.9932 8.76032
ltibia 32.1951
lfoot -38.4426 6.01963
ltoes -49.2241
